<svg width="388" height="217" viewBox="0 0 388 217" fill="none" xmlns="http://www.w3.org/2000/svg">
<path d="M40 46H150.5L175 166L163 176.5H144.5H112L110.304 186H186L190 184.5L201.5 189H206V196.5V200L186 202H152.5L150.5 205H106.5L38 206.5L46.4444 194.5L47.5 193L51.569 163.5L32 81L29 57.5L40 46Z" fill="white"/>
<path d="M163 176.5L175 166L150.5 46H40L29 57.5M163 176.5L137 59M163 176.5L147 172.5M163 176.5H144.5M137 59L29 57.5M137 59L125.5 82.5M29 57.5L32 81M32 81L125.5 82.5M32 81L51.569 163.5M125.5 82.5L147 172.5M147 172.5L144.5 176.5M112 176.5L117.5 125.5L113.5 106M112 176.5L110.304 186M112 176.5H144.5M113.5 106H59.5L51.569 163.5M113.5 106L100.5 193M47.5 193H100.5M47.5 193L51.569 163.5M47.5 193L46.4444 194.5M106.5 205L38 206.5L46.4444 194.5M106.5 205L100.5 193M106.5 205H150.5L152.5 202M100.5 193L109.5 190.5M109.5 190.5H143L152.5 202M109.5 190.5L110.304 186M152.5 202H186M186 202V186M186 202L206 200V196.5M186 186H110.304M186 186L190 184.5L201.5 189H206V196.5M0 194.5H46.4444M386.5 216V196.5M386.5 196.5H206M386.5 196.5L279 216" stroke="black" stroke-width="2"/>
<path d="M284.467 1.99946L284.484 2H284.5C304.708 2 322.835 5.61465 335.889 14.9994C348.864 24.3277 356.978 39.4686 357 62.9062C350.056 99.4416 325.887 126.093 284.34 135.511C244.623 139.394 214.029 103.843 214 64.5553C216.24 44.47 222.679 28.4979 234.062 17.7264C245.442 6.95859 261.904 1.25561 284.467 1.99946Z" fill="white" stroke="black" stroke-width="2"/>
<path d="M240.092 103.581C239.861 104.082 240.08 104.677 240.581 104.908C241.082 105.139 241.677 104.921 241.908 104.419L240.092 103.581ZM261.051 104.316C261.226 104.84 261.792 105.123 262.316 104.949C262.84 104.774 263.123 104.208 262.949 103.684L261.051 104.316ZM241.908 104.419C242.496 103.144 243.795 102.185 245.649 101.575C247.491 100.968 249.751 100.753 252.009 100.874C254.266 100.994 256.452 101.445 258.138 102.117C258.981 102.452 259.668 102.831 260.172 103.227C260.68 103.628 260.947 104.002 261.051 104.316L262.949 103.684C262.679 102.873 262.101 102.201 261.409 101.656C260.711 101.107 259.84 100.642 258.878 100.258C256.954 99.4922 254.547 99.0061 252.116 98.8764C249.687 98.7469 247.165 98.9696 245.023 99.6752C242.892 100.377 241.004 101.606 240.092 103.581L241.908 104.419Z" fill="black"/>
<path d="M320.5 120.5C335.5 128.5 312 220 312 196.5C312 121.416 255.5 90.5 251 101.5" stroke="black" stroke-width="2" stroke-linecap="round" stroke-linejoin="round"/>
<path d="M344.042 196.286C343.699 162.144 338.689 145.273 321.042 119.286" stroke="black" stroke-width="2"/>
<path d="M309.799 127.601C310.131 127.16 310.043 126.533 309.601 126.201C309.16 125.869 308.533 125.957 308.201 126.399L309.799 127.601ZM251.306 100.481C251.848 100.588 252.374 100.236 252.481 99.6938C252.588 99.152 252.236 98.626 251.694 98.519L251.306 100.481ZM308.201 126.399C291.84 148.137 273.025 166.081 257.922 178.592C250.372 184.847 243.758 189.736 238.853 193.058C236.399 194.719 234.381 195.982 232.894 196.826C232.149 197.249 231.551 197.558 231.105 197.759C230.881 197.859 230.71 197.926 230.588 197.966C230.444 198.012 230.433 198 230.5 198L230.5 200C230.755 200 231.008 199.932 231.204 199.869C231.421 199.798 231.664 199.7 231.926 199.583C232.45 199.346 233.108 199.004 233.881 198.566C235.429 197.687 237.494 196.393 239.974 194.714C244.938 191.353 251.603 186.424 259.198 180.132C274.386 167.551 293.321 149.496 309.799 127.601L308.201 126.399ZM230.5 198C230.832 198 231.021 198.18 231.046 198.205C231.086 198.243 231.083 198.254 231.046 198.19C230.975 198.068 230.871 197.836 230.74 197.463C230.483 196.732 230.182 195.625 229.855 194.177C229.205 191.29 228.477 187.153 227.811 182.195C226.481 172.28 225.407 159.146 225.687 146.272C225.968 133.368 227.606 120.85 231.62 112.088C233.622 107.718 236.181 104.358 239.383 102.322C242.56 100.303 246.464 99.5246 251.306 100.481L251.694 98.519C246.411 97.4754 241.971 98.3067 238.31 100.635C234.674 102.947 231.901 106.673 229.802 111.255C225.612 120.4 223.97 133.257 223.688 146.228C223.405 159.229 224.488 172.47 225.829 182.461C226.5 187.456 227.237 191.655 227.904 194.616C228.237 196.092 228.558 197.287 228.853 198.126C228.998 198.539 229.152 198.91 229.317 199.194C229.397 199.333 229.507 199.498 229.653 199.64C229.785 199.768 230.074 200 230.5 200L230.5 198Z" fill="black"/>
<path d="M300 64.5L263.372 68L257.5 64.5L258 63" stroke="black" stroke-width="2" stroke-linecap="round" stroke-linejoin="round"/>
<path d="M263.5 68C255.5 103 317.5 84 300 64.5" stroke="black" stroke-width="2" stroke-linecap="round" stroke-linejoin="round"/>
<path d="M246.5 111H259.5" stroke="black" stroke-width="2" stroke-linecap="round"/>
<path d="M211.5 67L238.5 70L241.5 68V65" stroke="black" stroke-width="2" stroke-linecap="round" stroke-linejoin="round"/>
<path d="M247 63.5V62" stroke="black" stroke-linecap="round"/>
<path d="M252 62.5V61" stroke="black" stroke-linecap="round"/>
<path d="M214.997 67.5782C215.04 67.0276 214.629 66.5462 214.078 66.5031C213.528 66.4599 213.046 66.8712 213.003 67.4218L214.997 67.5782ZM237.017 70.1859C237.839 74.5301 236.719 77.9687 234.685 80.3505C232.633 82.7525 229.604 84.1356 226.525 84.2507C223.459 84.3653 220.375 83.2227 218.162 80.6045C215.947 77.9833 214.511 73.7686 214.997 67.5782L213.003 67.4218C212.489 73.9814 213.99 78.7667 216.635 81.8955C219.281 85.0273 222.979 86.3847 226.6 86.2493C230.209 86.1144 233.773 84.4975 236.206 81.6495C238.656 78.7813 239.911 74.7199 238.983 69.8141L237.017 70.1859Z" fill="black"/>
<path d="M248.5 95H256" stroke="black" stroke-linecap="round"/>
</svg>
